<svg id="Capa_1" enable-background="new 0 0 512 512" height="512" viewBox="0 0 512 512" width="512" xmlns="http://www.w3.org/2000/svg"><path d="m426.204 137.964c3.324-1.891 6.457-4.254 9.282-7.079 9.788-9.788 14.176-23.156 11.737-35.758-.582-3.006-2.932-5.356-5.938-5.938-6.307-1.221-13.004-.663-19.35 1.508-2.871-10.307-9.012-19.22-17.445-24.919-2.537-1.714-5.861-1.714-8.398 0-8.433 5.698-14.574 14.612-17.445 24.919-6.346-2.171-13.043-2.728-19.35-1.508-3.006.582-5.356 2.932-5.938 5.938-2.439 12.602 1.949 25.97 11.737 35.758 2.824 2.824 5.956 5.189 9.28 7.079-8.353 7.26-13.649 17.948-13.649 29.858v72.661h-25.081v-104.725c0-28.759-17.045-53.597-41.555-64.986 1.79-1.313 3.508-2.767 5.121-4.379 9.788-9.788 14.176-23.156 11.737-35.758-.582-3.006-2.932-5.356-5.938-5.938-6.306-1.221-13.003-.663-19.35 1.508-2.871-10.307-9.012-19.22-17.445-24.919-2.537-1.714-5.861-1.714-8.398 0-8.433 5.698-14.574 14.612-17.445 24.919-6.346-2.171-13.042-2.728-19.35-1.508-3.006.582-5.356 2.932-5.938 5.938-2.439 12.602 1.949 25.969 11.737 35.758 1.612 1.612 3.326 3.069 5.116 4.382-24.507 11.39-41.549 36.227-41.549 64.983v168.855h-41.113v-88.693c0-11.909-5.297-22.598-13.649-29.858 3.324-1.891 6.456-4.255 9.28-7.08 9.789-9.788 14.176-23.155 11.737-35.758-.582-3.006-2.932-5.356-5.938-5.938-6.306-1.221-13.003-.664-19.35 1.508-2.871-10.307-9.012-19.22-17.445-24.919-2.537-1.714-5.861-1.714-8.398 0-8.433 5.698-14.574 14.611-17.445 24.919-6.347-2.171-13.044-2.728-19.35-1.508-3.006.582-5.356 2.932-5.938 5.938-2.439 12.602 1.949 25.969 11.737 35.757 2.825 2.825 5.958 5.188 9.282 7.078-8.354 7.26-13.651 17.949-13.651 29.859v96.193c0 39.497 32.133 71.629 71.629 71.629h48.613v113.26h-16.548c-4.142 0-7.5 3.358-7.5 7.5s3.358 7.5 7.5 7.5h176.354c4.142 0 7.5-3.358 7.5-7.5s-3.358-7.5-7.5-7.5h-16.548v-177.387h32.581c39.497 0 71.629-32.133 71.629-71.629v-80.161c-.003-11.91-5.3-22.6-13.654-29.859zm-46.102-29.937c1.736 1.164 3.89 1.632 5.927 1.165 3.364-.772 5.679-3.644 5.848-6.938.409-7.999 3.47-15.318 8.414-20.49 4.927 5.154 7.984 12.44 8.409 20.407.111 2.086 1.045 4.086 2.647 5.427 2.64 2.211 6.317 2.331 9.047.487 3.859-2.607 8.181-4.14 12.415-4.469-.448 5.953-3.255 11.99-7.928 16.663-5.803 5.802-13.75 8.731-21.006 7.81-.761-.097-1.524-.177-2.291-.177h-2.582c-.768 0-1.531.081-2.292.178-7.255.922-15.203-2.008-21.005-7.81-4.672-4.672-7.48-10.71-7.928-16.663 4.199.326 8.488 1.837 12.325 4.41zm-136.274-64.493c1.736 1.164 3.89 1.632 5.927 1.164 3.364-.772 5.679-3.644 5.848-6.938.409-7.999 3.47-15.318 8.414-20.49 4.926 5.153 7.982 12.437 8.409 20.402.112 2.084 1.042 4.082 2.64 5.425 2.638 2.218 6.322 2.34 9.054.494 3.859-2.607 8.181-4.139 12.414-4.469-.448 5.953-3.255 11.99-7.928 16.663-5.802 5.802-13.751 8.731-21.006 7.81-.761-.097-1.525-.178-2.292-.178h-2.581c-.768 0-1.531.081-2.292.178-7.255.922-15.203-2.008-21.006-7.81-4.672-4.673-7.48-10.71-7.928-16.663 4.2.328 8.49 1.84 12.327 4.412zm-152.307 112.59c1.735 1.163 3.888 1.631 5.924 1.165 3.365-.771 5.683-3.644 5.851-6.939.408-7.999 3.469-15.318 8.413-20.49 4.926 5.153 7.982 12.437 8.409 20.402.112 2.083 1.041 4.08 2.637 5.423 2.637 2.22 6.324 2.344 9.057.497 3.859-2.607 8.181-4.14 12.414-4.469-.447 5.953-3.255 11.991-7.928 16.663-5.802 5.802-13.75 8.732-21.005 7.81-.761-.097-1.525-.178-2.292-.178h-2.582c-.768 0-1.531.081-2.292.178-7.254.922-15.203-2.007-21.006-7.81-4.672-4.673-7.48-10.71-7.928-16.663 4.202.326 8.491 1.838 12.328 4.411zm52.253 212.618c-31.226 0-56.629-25.404-56.629-56.629v-96.193c0-10.93 7.177-20.211 17.064-23.39v119.583c0 21.816 17.749 39.565 39.565 39.565h24.051c4.142 0 7.5-3.358 7.5-7.5s-3.358-7.5-7.5-7.5h-24.051c-13.545 0-24.565-11.02-24.565-24.565v-119.583c9.888 3.178 17.065 12.46 17.065 23.39v96.193c0 4.142 3.358 7.5 7.5 7.5h48.613v49.129zm63.613-232.984c0-20.385 10.831-38.284 27.037-48.259-6.43 13.079-9.973 30.188-9.973 48.259v296.596c0 4.142 3.358 7.5 7.5 7.5s7.5-3.358 7.5-7.5v-296.596c0-15.988 3.054-30.901 8.6-41.992 2.552-5.104 5.456-9.004 8.465-11.493v414.727h-17.064v-32.581c0-4.142-3.358-7.5-7.5-7.5s-7.5 3.358-7.5 7.5v32.581h-17.064v-361.242zm96.194 361.242v-321.161c0-4.142-3.358-7.5-7.5-7.5s-7.5 3.358-7.5 7.5v321.161h-17.064v-414.727c3.009 2.489 5.913 6.389 8.465 11.493 5.545 11.091 8.6 26.004 8.6 41.992v8.017c0 4.142 3.358 7.5 7.5 7.5s7.5-3.358 7.5-7.5v-8.017c0-18.07-3.542-35.179-9.973-48.259 16.206 9.974 27.037 27.873 27.037 48.259v361.242zm121.274-249.016c0 31.225-25.404 56.629-56.629 56.629h-32.581v-17.064h32.581c21.816 0 39.565-17.749 39.565-39.564v-48.097c0-4.142-3.358-7.5-7.5-7.5s-7.5 3.358-7.5 7.5v48.097c0 13.545-11.02 24.564-24.565 24.564h-32.581v-17.064h32.581c4.142 0 7.5-3.358 7.5-7.5v-80.161c0-10.93 7.177-20.211 17.065-23.389v23.39c0 4.142 3.358 7.5 7.5 7.5s7.5-3.358 7.5-7.5v-23.39c9.887 3.178 17.064 12.459 17.064 23.389z"/></svg>