<?xml version="1.0" standalone="no"?>
<!DOCTYPE svg PUBLIC "-//W3C//DTD SVG 20010904//EN"
 "http://www.w3.org/TR/2001/REC-SVG-20010904/DTD/svg10.dtd">
<svg version="1.0" xmlns="http://www.w3.org/2000/svg"
 width="2778.000000pt" height="773.000000pt" viewBox="0 0 2778.000000 773.000000"
 preserveAspectRatio="xMidYMid meet">
<metadata>
Created by potrace 1.15, written by Peter Selinger 2001-2017
</metadata>
<g transform="translate(0.000000,773.000000) scale(0.100000,-0.100000)"
fill="#000000" stroke="none">
<path d="M3320 7321 c0 -5 -46 -12 -101 -16 -88 -6 -102 -10 -106 -26 -5 -17
-15 -19 -84 -19 -72 0 -79 -2 -79 -20 0 -18 -7 -20 -65 -20 -52 0 -69 -4 -85
-20 -13 -13 -33 -20 -59 -20 -30 0 -40 -4 -44 -20 -4 -16 -14 -20 -50 -20 -55
0 -77 -8 -77 -26 0 -8 -10 -14 -24 -14 -34 0 -56 -10 -56 -25 0 -13 -43 -25
-90 -25 -19 0 -29 -6 -33 -20 -4 -15 -14 -20 -42 -20 -28 0 -38 -5 -42 -20 -3
-13 -14 -20 -28 -20 -34 0 -55 -10 -55 -26 0 -8 -9 -14 -21 -14 -12 0 -23 -8
-26 -20 -4 -15 -14 -20 -40 -20 -26 0 -36 -5 -40 -19 -3 -13 -17 -22 -44 -26
-29 -5 -39 -11 -39 -26 0 -12 -7 -19 -19 -19 -11 0 -23 -9 -26 -20 -5 -15 -15
-20 -42 -20 -26 0 -36 -5 -40 -19 -3 -11 -13 -21 -24 -24 -10 -3 -19 -12 -19
-21 0 -9 -8 -16 -19 -16 -10 0 -21 -9 -24 -20 -4 -15 -14 -20 -37 -20 -23 0
-33 -5 -37 -19 -2 -10 -16 -24 -29 -30 -13 -6 -24 -17 -24 -26 0 -8 -9 -15
-20 -15 -13 0 -20 -7 -20 -20 0 -13 -7 -20 -20 -20 -13 0 -20 -7 -20 -20 0
-13 -7 -20 -20 -20 -13 0 -20 -7 -20 -19 0 -14 -10 -21 -36 -26 -24 -4 -38
-13 -41 -26 -3 -10 -13 -19 -23 -19 -10 0 -20 -9 -23 -20 -3 -11 -12 -20 -21
-20 -9 0 -16 -5 -16 -11 0 -7 -11 -22 -25 -35 -14 -13 -25 -34 -25 -49 0 -18
-5 -25 -20 -25 -13 0 -20 -7 -20 -20 0 -13 -7 -20 -20 -20 -13 0 -20 -7 -20
-20 0 -13 -7 -20 -19 -20 -11 0 -23 -9 -26 -20 -3 -11 -15 -25 -26 -30 -10 -6
-19 -17 -19 -24 0 -8 -9 -16 -20 -19 -15 -4 -20 -14 -20 -37 0 -23 -5 -33 -20
-37 -11 -3 -20 -14 -20 -24 0 -12 -7 -19 -20 -19 -13 0 -20 -7 -20 -19 0 -11
-9 -23 -20 -26 -15 -5 -20 -15 -20 -42 0 -26 -5 -36 -20 -40 -10 -3 -22 -14
-25 -24 -4 -10 -13 -19 -21 -19 -8 0 -16 -15 -20 -39 -4 -27 -12 -41 -25 -44
-14 -4 -19 -14 -19 -40 0 -27 -5 -37 -20 -42 -11 -3 -20 -15 -20 -25 0 -9 -9
-20 -20 -23 -15 -4 -20 -14 -20 -40 0 -26 -5 -36 -20 -40 -15 -4 -20 -14 -20
-42 0 -28 -5 -38 -20 -42 -15 -4 -21 -17 -26 -63 -5 -45 -11 -59 -25 -63 -14
-4 -19 -14 -19 -40 0 -26 -5 -36 -20 -40 -17 -4 -20 -14 -20 -66 0 -54 -2 -61
-20 -61 -17 0 -20 -7 -20 -40 0 -27 -7 -47 -20 -60 -16 -16 -20 -33 -20 -85 0
-57 -2 -65 -19 -65 -16 0 -19 -11 -25 -77 -5 -53 -12 -80 -23 -89 -13 -9 -18
-34 -21 -105 -2 -52 -8 -98 -13 -103 -12 -13 -12 -1166 0 -1166 5 0 11 -43 13
-96 2 -76 7 -98 20 -108 12 -9 19 -34 24 -88 5 -63 10 -77 25 -81 16 -4 19
-15 19 -66 0 -48 4 -65 20 -81 13 -13 20 -33 20 -59 0 -31 4 -41 20 -46 17 -5
20 -15 20 -62 0 -46 3 -56 20 -60 15 -4 20 -14 20 -40 0 -26 5 -36 19 -40 14
-4 20 -18 25 -63 5 -46 11 -60 26 -65 15 -5 20 -15 20 -42 0 -26 5 -36 20 -40
15 -4 20 -14 20 -40 0 -26 5 -36 20 -40 11 -3 20 -14 20 -25 0 -11 9 -22 20
-25 15 -4 20 -14 20 -40 0 -26 5 -36 20 -40 13 -3 20 -14 20 -28 0 -33 10 -55
25 -55 7 0 15 -9 18 -21 3 -11 15 -23 26 -26 16 -4 21 -13 21 -40 0 -26 5 -36
20 -40 11 -3 20 -14 20 -24 0 -12 7 -19 20 -19 13 0 20 -7 20 -19 0 -10 9 -21
20 -24 15 -4 20 -14 20 -37 0 -23 5 -33 20 -37 11 -3 20 -14 20 -25 0 -11 8
-22 20 -25 10 -3 22 -14 25 -24 4 -10 15 -19 26 -19 12 0 19 -7 19 -20 0 -13
7 -20 20 -20 13 0 20 -7 20 -20 0 -13 7 -20 20 -20 15 0 20 -7 20 -25 0 -15
11 -36 25 -49 14 -13 25 -28 25 -35 0 -6 7 -11 16 -11 9 0 18 -9 21 -20 3 -11
9 -20 13 -20 4 0 19 -11 34 -25 15 -14 38 -25 52 -25 17 0 24 -5 24 -20 0 -13
7 -20 20 -20 13 0 20 -7 20 -20 0 -13 7 -20 20 -20 13 0 20 -7 20 -19 0 -11 9
-22 19 -26 10 -3 21 -15 24 -25 3 -12 14 -20 25 -20 11 0 22 -9 25 -20 4 -15
14 -20 37 -20 23 0 33 -5 37 -20 3 -11 14 -20 24 -20 12 0 19 -7 19 -20 0 -13
7 -20 19 -20 10 0 21 -9 24 -20 4 -15 14 -20 36 -20 22 0 35 -7 47 -25 9 -14
23 -25 30 -25 8 0 14 -6 14 -14 0 -16 21 -26 55 -26 14 0 25 -7 28 -20 4 -15
14 -20 40 -20 26 0 36 -5 40 -20 3 -11 14 -20 25 -20 11 0 22 -9 25 -20 4 -15
14 -20 40 -20 26 0 36 -5 40 -20 4 -15 14 -20 40 -20 26 0 37 -5 42 -19 6 -19
43 -31 95 -31 19 0 29 -6 33 -20 4 -15 14 -20 40 -20 26 0 36 -5 40 -20 4 -17
14 -20 60 -20 47 0 57 -3 62 -20 5 -16 15 -20 46 -20 26 0 46 -7 59 -20 16
-16 33 -20 85 -20 57 0 65 -2 65 -19 0 -16 11 -20 77 -26 54 -5 81 -12 89 -24
10 -12 34 -17 108 -19 53 -2 96 -8 96 -13 0 -5 84 -9 190 -9 l190 0 0 819 c0
509 -4 829 -10 845 -5 14 -16 26 -24 26 -7 0 -16 9 -19 20 -3 11 -12 20 -20
20 -8 0 -17 9 -20 20 -3 11 -12 20 -21 20 -9 0 -16 5 -16 11 0 14 -105 119
-119 119 -6 0 -11 7 -11 16 0 9 -9 18 -20 21 -11 3 -20 12 -20 20 0 8 -9 17
-20 20 -11 3 -20 12 -20 20 0 8 -9 17 -20 20 -11 3 -20 10 -20 15 0 13 -146
158 -159 158 -6 0 -11 7 -11 16 0 9 -9 18 -20 21 -11 3 -20 12 -20 20 0 8 -9
17 -20 20 -11 3 -20 10 -20 15 0 13 -147 158 -160 158 -5 0 -10 7 -10 16 0 9
-9 18 -20 21 -11 3 -20 12 -20 20 0 8 -9 17 -20 20 -11 3 -20 10 -20 16 0 7
-29 40 -65 74 -36 34 -65 67 -65 72 0 6 -9 11 -20 11 -13 0 -20 7 -20 20 0 13
-7 20 -20 20 -12 0 -20 7 -20 16 0 9 -9 18 -20 21 -11 3 -20 10 -20 16 0 5
-29 38 -65 73 -36 35 -65 68 -65 74 0 5 -9 10 -20 10 -13 0 -20 7 -20 20 0 13
-7 20 -20 20 -12 0 -20 7 -20 16 0 9 -9 18 -20 21 -11 3 -20 10 -20 16 0 5
-29 38 -65 73 -36 35 -65 68 -65 74 0 5 -9 10 -20 10 -13 0 -20 7 -20 20 0 13
-7 20 -20 20 -12 0 -20 7 -20 16 0 9 -9 18 -20 21 -11 3 -20 10 -20 15 0 5
-33 42 -73 83 -74 73 -114 94 -157 80 -19 -6 -20 -14 -20 -187 0 -171 1 -180
20 -185 18 -5 20 -14 20 -85 0 -71 2 -80 20 -85 16 -4 20 -14 20 -48 0 -53 8
-75 26 -75 9 0 14 -12 14 -34 0 -21 9 -42 25 -60 14 -15 25 -38 25 -52 0 -13
9 -33 20 -44 11 -11 20 -29 20 -39 0 -11 9 -23 20 -26 15 -5 20 -15 20 -42 0
-26 5 -36 20 -40 11 -3 20 -14 20 -24 0 -12 7 -19 19 -19 15 0 21 -10 26 -40
4 -23 12 -40 20 -40 7 0 15 -9 18 -21 3 -11 15 -23 26 -26 12 -3 21 -14 21
-24 0 -11 9 -28 20 -39 11 -11 20 -27 20 -36 0 -9 9 -18 20 -21 11 -3 20 -12
20 -20 0 -8 9 -17 20 -20 11 -3 20 -14 20 -24 0 -12 7 -19 20 -19 11 0 20 -5
20 -11 0 -15 65 -79 80 -79 5 0 10 -7 10 -16 0 -9 9 -18 19 -21 11 -3 21 -13
24 -24 3 -10 12 -19 21 -19 9 0 25 -9 36 -20 11 -11 28 -20 39 -20 10 0 21 -9
24 -20 3 -11 14 -20 25 -20 11 0 22 -8 25 -19 3 -12 17 -21 41 -25 20 -4 36
-13 36 -20 0 -16 21 -26 53 -26 12 0 28 -9 35 -20 8 -13 23 -20 45 -20 21 0
36 -7 45 -20 9 -16 23 -20 61 -20 41 0 51 -4 56 -20 3 -11 13 -20 21 -20 12 0
14 -62 14 -418 l0 -419 -57 5 c-41 3 -62 10 -71 23 -10 14 -26 19 -64 19 -41
0 -51 3 -55 20 -4 16 -14 20 -43 20 -29 0 -39 4 -43 20 -4 16 -14 20 -45 20
-30 0 -41 4 -45 19 -3 12 -17 21 -40 25 -19 4 -38 13 -41 21 -3 8 -21 17 -40
21 -20 3 -36 12 -36 19 0 15 -22 25 -55 25 -14 0 -25 7 -28 20 -4 15 -14 20
-40 20 -27 0 -37 5 -42 20 -3 11 -15 20 -26 20 -12 0 -19 7 -19 20 0 15 -7 20
-25 20 -14 0 -28 6 -31 14 -3 8 -19 20 -35 26 -16 7 -29 18 -29 26 0 7 -9 15
-19 19 -11 3 -23 15 -26 26 -4 10 -15 19 -25 19 -9 0 -20 9 -23 20 -4 15 -14
20 -41 20 -29 0 -36 4 -36 20 0 13 -7 20 -20 20 -13 0 -20 7 -20 20 0 13 -7
20 -20 20 -13 0 -20 7 -20 20 0 12 -7 20 -16 20 -9 0 -18 9 -21 20 -3 10 -13
22 -24 25 -10 3 -21 15 -24 26 -4 10 -15 19 -26 19 -12 0 -19 7 -19 20 0 13
-7 20 -20 20 -13 0 -20 7 -20 20 0 13 -7 20 -20 20 -16 0 -20 7 -20 36 0 27
-5 37 -20 41 -11 3 -20 14 -20 24 0 11 -7 19 -15 19 -9 0 -20 11 -25 25 -5 14
-16 25 -24 25 -8 0 -17 8 -21 19 -3 10 -14 26 -25 36 -11 10 -20 29 -20 42 0
16 -6 23 -20 23 -13 0 -20 7 -20 19 0 11 -9 23 -20 26 -15 5 -20 15 -20 42 0
26 -5 36 -20 40 -13 3 -20 14 -20 28 0 33 -10 55 -25 55 -7 0 -16 16 -19 36
-4 19 -13 37 -21 40 -8 3 -17 21 -21 40 -3 19 -15 39 -25 45 -13 7 -19 21 -19
45 0 27 -5 37 -20 41 -16 4 -20 14 -20 44 0 32 -3 39 -20 39 -18 0 -20 7 -20
55 0 44 -4 57 -20 67 -15 10 -20 24 -20 55 0 51 -8 73 -26 73 -10 0 -14 14
-14 49 0 59 -7 81 -26 81 -10 0 -14 16 -14 63 0 94 -10 139 -32 145 -17 4 -18
18 -18 213 0 186 -2 211 -18 227 -16 16 -16 18 0 35 16 15 18 40 18 226 0 195
1 209 18 214 23 5 32 45 32 138 0 52 3 69 14 69 19 0 26 22 26 81 0 35 4 49
14 49 18 0 26 22 26 76 0 31 4 44 14 44 18 0 26 22 26 75 0 35 4 45 20 50 15
5 20 15 20 45 0 29 4 39 20 43 15 4 20 14 20 41 0 24 6 38 19 45 10 6 22 26
25 46 4 20 13 35 21 35 8 0 16 16 20 39 4 27 13 41 26 44 14 4 19 14 19 40 0
26 5 36 20 40 15 4 20 14 20 40 0 26 5 36 20 40 12 3 20 14 20 26 0 14 6 21
20 21 15 0 20 7 20 25 0 14 5 25 10 25 6 0 18 15 27 34 9 19 24 37 34 39 11 3
19 12 19 20 0 8 9 17 20 20 11 3 20 14 20 25 0 11 9 22 20 25 15 4 20 14 20
41 0 29 4 36 20 36 13 0 20 7 20 20 0 13 7 20 20 20 13 0 20 7 20 20 0 13 7
20 19 20 11 0 22 9 26 19 3 10 15 21 25 24 11 3 20 12 20 20 0 8 9 17 20 20
12 3 20 14 20 26 0 14 6 21 20 21 13 0 20 7 20 20 0 13 7 20 20 20 13 0 20 7
20 20 0 16 7 20 36 20 27 0 37 5 41 20 3 11 14 20 23 20 10 0 21 9 25 19 3 10
15 21 25 24 11 3 20 12 20 21 0 9 6 16 13 16 6 0 25 11 41 25 16 14 37 25 48
25 11 0 18 7 18 20 0 13 7 20 19 20 11 0 23 9 26 20 5 15 15 20 42 20 26 0 36
5 40 20 4 15 14 20 40 20 26 0 36 5 40 19 3 13 17 21 44 25 23 4 39 12 39 20
0 8 15 17 36 20 19 4 38 14 41 22 3 8 23 17 45 21 28 4 42 12 45 24 4 14 15
19 43 19 29 0 39 4 43 20 4 17 14 20 60 20 47 0 57 3 62 20 5 17 15 20 62 20
46 0 56 3 60 20 5 17 14 20 65 20 51 0 61 3 65 20 5 18 14 20 94 20 78 0 92 3
111 22 22 22 23 22 443 22 420 0 421 0 443 -22 19 -19 33 -22 111 -22 80 0 89
-2 94 -20 4 -17 14 -20 65 -20 51 0 60 -3 65 -20 4 -17 14 -20 60 -20 46 0 55
-3 60 -20 4 -17 14 -20 60 -20 47 0 57 -3 62 -20 5 -15 15 -20 45 -20 29 0 39
-5 43 -19 3 -13 17 -21 46 -26 24 -4 41 -12 41 -20 0 -8 17 -16 40 -20 24 -4
40 -12 40 -21 0 -8 15 -16 39 -20 27 -4 41 -12 44 -25 4 -14 14 -19 40 -19 26
0 36 -5 40 -20 4 -15 14 -20 41 -20 26 0 36 -4 36 -15 0 -9 11 -20 25 -25 14
-5 25 -16 25 -24 0 -7 12 -17 26 -20 14 -4 35 -16 47 -26 11 -11 26 -20 33
-20 6 0 14 -9 17 -20 3 -11 12 -20 20 -20 8 0 17 -9 20 -20 3 -11 14 -20 25
-20 11 0 22 -9 25 -20 4 -15 14 -20 41 -20 29 0 36 -4 36 -20 0 -13 7 -20 20
-20 13 0 20 -7 20 -20 0 -13 7 -20 20 -20 14 0 20 -7 20 -21 0 -12 8 -23 19
-26 11 -3 21 -13 24 -24 3 -10 12 -19 21 -19 9 0 16 -7 16 -16 0 -9 9 -18 20
-21 10 -3 22 -14 25 -24 4 -10 15 -19 26 -19 12 0 19 -7 19 -20 0 -13 7 -20
20 -20 16 0 20 -7 20 -36 0 -27 5 -37 20 -41 11 -3 20 -14 20 -25 0 -11 9 -22
20 -25 11 -3 20 -12 20 -20 0 -8 9 -17 20 -20 11 -3 20 -10 20 -16 0 -5 11
-25 25 -43 14 -18 25 -40 25 -48 0 -9 9 -16 20 -16 14 0 20 -7 20 -21 0 -12 8
-23 20 -26 15 -4 20 -14 20 -40 0 -26 5 -36 20 -40 15 -4 20 -14 20 -40 0 -26
5 -36 19 -40 13 -3 22 -17 26 -44 4 -22 12 -39 20 -39 8 0 16 -17 20 -40 4
-24 12 -40 21 -40 8 0 16 -16 20 -41 5 -29 13 -43 25 -46 14 -4 19 -15 19 -43
0 -30 5 -40 20 -45 17 -5 20 -15 20 -62 0 -46 3 -56 20 -60 17 -5 20 -14 20
-60 0 -46 3 -56 20 -60 17 -5 20 -14 20 -65 0 -50 3 -61 19 -65 17 -4 20 -16
23 -100 2 -76 6 -97 21 -107 14 -11 17 -31 18 -122 2 -205 12 -314 31 -328 15
-11 15 -13 0 -23 -19 -11 -29 -121 -31 -327 -1 -91 -4 -111 -18 -122 -15 -10
-19 -31 -21 -107 -3 -84 -6 -96 -23 -100 -16 -4 -19 -15 -19 -66 0 -45 -4 -61
-14 -61 -18 0 -26 -22 -26 -73 0 -31 -5 -45 -20 -55 -16 -10 -20 -23 -20 -67
0 -48 -2 -55 -20 -55 -17 0 -20 -7 -20 -39 0 -29 -5 -40 -19 -44 -12 -3 -20
-17 -24 -45 -4 -22 -13 -42 -21 -45 -8 -3 -18 -22 -22 -41 -3 -20 -12 -36 -19
-36 -8 0 -16 -17 -20 -39 -4 -27 -13 -41 -26 -44 -14 -4 -19 -14 -19 -40 0
-26 -5 -36 -20 -40 -15 -4 -20 -14 -20 -40 0 -27 -5 -37 -20 -42 -11 -3 -20
-15 -20 -26 0 -12 -7 -19 -20 -19 -13 0 -20 -7 -20 -19 0 -11 -11 -33 -25 -49
-14 -17 -25 -35 -25 -41 0 -6 -7 -11 -15 -11 -9 0 -20 -11 -25 -25 -5 -14 -16
-25 -25 -25 -8 0 -15 -8 -15 -19 0 -10 -9 -21 -20 -24 -15 -4 -20 -14 -20 -41
0 -29 -4 -36 -20 -36 -13 0 -20 -7 -20 -20 0 -13 -7 -20 -19 -20 -11 0 -23 -9
-26 -20 -3 -11 -13 -20 -22 -20 -8 0 -17 -9 -20 -20 -3 -11 -12 -20 -20 -20
-8 0 -17 -9 -20 -20 -3 -10 -14 -22 -24 -25 -10 -4 -19 -15 -19 -26 0 -12 -7
-19 -20 -19 -13 0 -20 -7 -20 -20 0 -13 -7 -20 -20 -20 -13 0 -20 -7 -20 -20
0 -16 -7 -20 -36 -20 -27 0 -37 -5 -41 -20 -3 -11 -14 -20 -25 -20 -11 0 -22
-9 -25 -20 -3 -11 -12 -20 -20 -20 -8 0 -17 -9 -20 -19 -3 -11 -18 -25 -33
-31 -16 -7 -31 -18 -34 -26 -3 -8 -17 -14 -31 -14 -18 0 -25 -5 -25 -20 0 -14
-7 -20 -21 -20 -12 0 -23 -8 -26 -20 -4 -15 -14 -20 -40 -20 -26 0 -36 -5 -40
-20 -4 -15 -14 -20 -40 -20 -26 0 -36 -5 -40 -19 -3 -13 -17 -22 -44 -26 -23
-4 -39 -12 -39 -20 0 -8 -15 -17 -35 -21 -20 -3 -40 -15 -46 -25 -7 -13 -21
-19 -45 -19 -27 0 -37 -5 -41 -20 -4 -16 -14 -20 -43 -20 -30 0 -40 -5 -45
-20 -5 -16 -15 -20 -50 -20 -53 0 -75 -8 -75 -26 0 -10 -13 -14 -44 -14 -24 0
-51 -3 -60 -6 -14 -6 -16 35 -16 409 l0 416 24 25 c18 20 33 26 65 26 28 0 47
6 61 20 11 11 33 20 50 20 19 0 34 7 42 20 7 11 23 20 35 20 13 0 32 9 43 20
11 11 34 23 50 27 16 3 32 14 35 24 4 11 15 19 25 19 10 0 22 9 25 20 3 11 15
20 26 20 10 0 28 9 39 20 11 11 27 20 36 20 9 0 18 9 21 19 3 11 13 21 24 24
10 3 19 12 19 20 0 8 9 17 20 20 11 3 20 12 20 20 0 9 9 18 19 22 11 3 23 14
26 24 3 11 15 21 25 24 11 3 20 12 20 21 0 9 7 16 15 16 9 0 19 8 22 18 4 9
15 23 25 30 10 7 18 17 18 23 0 5 9 18 20 29 11 11 20 28 20 39 0 10 9 21 20
24 12 3 20 14 20 26 0 14 6 21 19 21 15 0 21 10 26 40 4 25 12 40 21 40 8 0
18 8 21 18 4 9 15 23 25 30 10 7 18 26 18 42 0 20 6 31 20 35 11 3 20 15 20
26 0 10 9 28 20 39 13 13 20 33 20 56 0 27 5 37 20 41 14 4 21 17 26 49 3 25
12 44 19 44 13 0 25 43 25 91 0 18 5 29 14 29 20 0 26 23 26 100 0 59 2 68 20
73 19 5 20 14 20 185 0 159 -2 181 -17 186 -22 9 -103 -4 -103 -16 0 -11 -110
-118 -122 -118 -4 0 -8 -9 -8 -20 0 -13 -7 -20 -20 -20 -12 0 -20 -7 -20 -16
0 -9 -9 -18 -20 -21 -11 -3 -20 -14 -20 -24 0 -12 -7 -19 -20 -19 -11 0 -20
-5 -20 -10 0 -13 -109 -120 -122 -120 -4 0 -8 -9 -8 -20 0 -13 -7 -20 -20 -20
-12 0 -20 -7 -20 -16 0 -9 -9 -18 -20 -21 -11 -3 -20 -14 -20 -24 0 -12 -7
-19 -20 -19 -11 0 -20 -4 -20 -9 0 -12 -109 -121 -121 -121 -5 0 -9 -9 -9 -20
0 -13 -7 -20 -20 -20 -12 0 -20 -7 -20 -16 0 -9 -9 -18 -20 -21 -11 -3 -20
-14 -20 -24 0 -12 -7 -19 -20 -19 -11 0 -20 -4 -20 -9 0 -12 -109 -121 -121
-121 -5 0 -9 -9 -9 -20 0 -13 -7 -20 -20 -20 -12 0 -20 -7 -20 -16 0 -9 -9
-18 -20 -21 -11 -3 -20 -14 -20 -24 0 -12 -7 -19 -20 -19 -11 0 -20 -4 -20 -8
0 -13 -107 -122 -120 -122 -5 0 -10 -9 -10 -20 0 -13 -7 -20 -20 -20 -13 0
-20 -7 -20 -20 0 -13 -7 -20 -20 -20 -13 0 -20 -7 -20 -20 0 -13 -7 -20 -20
-20 -11 0 -20 -4 -20 -8 0 -13 -107 -122 -120 -122 -5 0 -10 -9 -10 -20 0 -13
-7 -20 -20 -20 -11 0 -20 -7 -20 -15 0 -8 -9 -19 -20 -25 -11 -6 -20 -17 -20
-25 0 -8 -5 -15 -11 -15 -14 0 -159 -145 -159 -159 0 -6 -5 -11 -11 -11 -14 0
-69 -55 -69 -69 0 -6 -7 -11 -15 -11 -8 0 -19 -9 -25 -19 -7 -13 -10 -295 -10
-845 l0 -826 183 0 c101 0 187 4 192 9 6 5 52 11 103 13 74 2 95 6 103 19 6
13 30 19 89 24 69 6 80 10 80 26 0 17 8 19 65 19 52 0 69 4 85 20 13 13 33 20
60 20 33 0 40 3 40 20 0 18 7 20 61 20 52 0 62 3 66 20 4 15 14 20 40 20 26 0
36 5 40 19 4 14 18 20 63 25 46 5 59 11 63 26 4 15 14 20 42 20 28 0 38 5 42
20 4 15 14 20 40 20 26 0 36 5 40 20 3 11 14 20 23 20 10 0 22 9 25 20 5 15
15 20 42 20 26 0 36 5 40 20 3 13 14 20 28 20 34 0 55 10 55 26 0 8 7 14 15
14 9 0 19 8 22 18 9 23 23 32 55 32 18 0 29 7 33 20 3 11 15 20 26 20 12 0 19
7 19 20 0 13 7 20 19 20 10 0 21 9 24 20 4 15 14 20 37 20 23 0 33 5 37 20 3
11 11 20 17 20 7 0 22 11 34 25 12 14 26 25 32 25 5 0 10 9 10 20 0 13 7 20
20 20 13 0 20 7 20 20 0 13 7 20 20 20 13 0 20 7 20 20 0 15 7 20 24 20 14 0
37 11 52 25 15 14 30 25 34 25 4 0 10 9 13 20 3 11 12 20 21 20 9 0 16 8 16
19 0 10 9 21 19 24 13 3 22 17 26 41 5 26 12 36 26 36 12 0 19 7 19 20 0 13 7
20 20 20 13 0 20 7 20 20 0 13 7 20 19 20 10 0 21 9 24 20 3 11 12 20 21 20 9
0 18 11 22 24 3 13 14 26 25 29 14 4 19 14 19 37 0 23 5 33 20 37 11 3 20 14
20 24 0 12 7 19 20 19 13 0 20 7 20 19 0 10 9 21 20 24 15 4 20 14 20 41 0 26
4 36 15 36 9 0 20 11 25 25 5 14 16 25 24 25 9 0 17 15 21 39 4 27 13 41 26
44 14 4 19 14 19 40 0 26 5 36 20 40 11 3 20 14 20 25 0 11 9 22 20 25 15 4
20 14 20 40 0 26 5 36 20 40 15 4 20 14 20 40 0 26 5 37 19 42 15 4 21 19 26
64 5 46 11 60 26 64 14 4 19 14 19 40 0 26 5 36 20 40 17 4 20 14 20 60 0 47
3 57 20 62 16 5 20 15 20 46 0 26 7 46 20 59 16 16 20 33 20 81 0 52 3 62 20
66 18 5 20 14 20 83 0 67 3 78 18 82 21 6 32 60 32 151 0 36 5 53 18 63 16 12
17 51 17 579 0 529 -1 567 -17 576 -14 8 -18 23 -18 63 0 94 -11 148 -32 154
-16 4 -18 15 -18 83 0 72 -2 79 -20 79 -18 0 -20 7 -20 65 0 52 -4 69 -20 85
-13 13 -20 33 -20 60 0 33 -3 40 -20 40 -18 0 -20 7 -20 61 0 52 -3 62 -20 66
-13 3 -20 14 -20 28 0 33 -10 55 -25 55 -8 0 -15 21 -20 60 -6 50 -10 60 -26
60 -16 0 -19 7 -19 41 0 32 -4 42 -20 46 -13 3 -20 14 -20 28 0 34 -10 55 -26
55 -8 0 -14 9 -14 19 0 11 -9 23 -20 26 -15 5 -20 15 -20 42 0 26 -5 36 -19
40 -13 3 -22 17 -26 43 -4 26 -13 40 -26 43 -10 3 -19 12 -19 21 0 9 -8 16
-20 16 -17 0 -20 7 -20 39 0 31 -4 41 -20 46 -11 3 -20 13 -20 22 0 8 -9 17
-20 20 -11 3 -20 13 -20 23 0 10 -9 20 -20 23 -15 4 -20 14 -20 37 0 23 -5 33
-20 37 -10 3 -22 13 -25 24 -3 10 -15 21 -26 24 -10 4 -19 15 -19 26 0 12 -7
19 -20 19 -13 0 -20 7 -20 20 0 13 -7 20 -20 20 -13 0 -20 7 -20 20 0 13 -7
20 -19 20 -14 0 -21 10 -26 36 -4 24 -13 38 -26 41 -10 3 -19 13 -19 23 0 10
-9 20 -20 23 -11 3 -20 12 -20 21 0 9 -8 16 -19 16 -10 0 -21 9 -24 19 -3 13
-17 22 -41 26 -26 5 -36 12 -36 26 0 12 -7 19 -20 19 -13 0 -20 7 -20 20 0 13
-7 20 -20 20 -13 0 -20 7 -20 20 0 13 -7 20 -19 20 -11 0 -22 9 -26 19 -3 11
-15 23 -26 26 -10 4 -19 12 -19 20 0 14 -21 25 -52 25 -11 0 -22 8 -25 20 -3
11 -13 20 -23 20 -10 0 -20 9 -23 20 -3 11 -12 20 -20 20 -9 0 -19 9 -22 20
-5 16 -15 20 -46 20 -32 0 -39 3 -39 20 0 13 -7 20 -20 20 -13 0 -20 7 -20 19
0 14 -10 20 -39 25 -27 4 -40 12 -44 26 -4 15 -13 20 -40 20 -27 0 -37 5 -42
20 -3 11 -15 20 -26 20 -10 0 -19 6 -19 14 0 16 -21 26 -55 26 -14 0 -25 7
-28 20 -4 16 -14 20 -46 20 -34 0 -41 3 -41 20 0 15 -7 20 -29 20 -48 0 -91
12 -91 25 0 15 -22 25 -56 25 -14 0 -24 6 -24 14 0 19 -22 26 -81 26 -42 0
-49 3 -49 20 0 17 -7 20 -41 20 -28 0 -46 6 -54 17 -9 13 -32 18 -84 21 -61 4
-71 7 -71 23 0 17 -8 19 -79 19 -69 0 -80 2 -86 19 -5 16 -20 20 -105 26 -55
4 -103 11 -106 16 -7 12 -1124 12 -1124 0z"/>
<path d="M3468 5883 c-10 -2 -18 -11 -18 -19 0 -10 -13 -14 -49 -14 -77 0 -81
-4 -81 -71 0 -52 2 -59 20 -59 13 0 20 -7 20 -19 0 -11 9 -23 20 -26 11 -3 20
-13 20 -22 0 -8 9 -17 20 -20 10 -3 22 -14 25 -24 4 -10 15 -19 26 -19 12 0
19 -7 19 -20 0 -13 7 -20 20 -20 13 0 20 -7 20 -20 0 -13 7 -20 20 -20 13 0
20 -7 20 -20 0 -13 7 -20 20 -20 13 0 20 -7 20 -19 0 -11 9 -23 20 -26 11 -3
20 -13 20 -22 0 -8 9 -17 20 -20 10 -3 22 -14 25 -24 4 -10 15 -19 26 -19 12
0 19 -7 19 -20 0 -13 7 -20 20 -20 13 0 20 -7 20 -20 0 -13 7 -20 20 -20 13 0
20 -7 20 -20 0 -18 7 -20 65 -20 58 0 65 2 65 20 0 13 7 20 20 20 13 0 20 7
20 20 0 13 7 20 20 20 13 0 20 7 20 20 0 13 7 20 20 20 13 0 20 7 20 20 0 13
7 20 19 20 11 0 22 9 26 19 3 11 15 23 26 26 10 4 19 15 19 26 0 12 7 19 20
19 13 0 20 7 20 20 0 13 7 20 20 20 13 0 20 7 20 20 0 13 7 20 20 20 13 0 20
7 20 20 0 13 7 20 20 20 13 0 20 7 20 20 0 13 7 20 19 20 11 0 22 9 26 19 3
11 15 23 26 26 10 4 19 15 19 26 0 12 7 19 20 19 18 0 20 7 20 59 0 67 -4 71
-81 71 -35 0 -49 4 -49 14 0 7 -10 16 -22 20 -26 7 -804 6 -830 -1z"/>
<path d="M24080 3990 l0 -1770 21 0 c12 0 23 -8 26 -20 5 -19 14 -20 225 -20
209 0 220 1 225 19 3 11 15 21 27 23 l21 3 0 1765 0 1765 -272 3 -273 2 0
-1770z"/>
<path d="M26837 5753 c-4 -3 -7 -321 -7 -705 0 -599 -2 -698 -14 -698 -8 0
-18 9 -21 20 -3 11 -15 20 -26 20 -12 0 -19 7 -19 20 0 17 -7 20 -40 20 -33 0
-40 3 -40 20 0 17 -7 20 -39 20 -31 0 -41 4 -46 20 -5 16 -15 20 -55 20 -39 0
-52 4 -65 23 -15 22 -19 22 -278 25 -311 4 -383 -1 -392 -29 -5 -16 -16 -19
-62 -19 -46 0 -56 -3 -60 -20 -4 -16 -14 -20 -45 -20 -31 0 -41 -4 -45 -20 -4
-15 -14 -20 -40 -20 -26 0 -36 -5 -40 -20 -3 -11 -14 -20 -24 -20 -12 0 -19
-7 -19 -19 0 -14 -10 -20 -39 -25 -27 -4 -42 -12 -46 -26 -3 -11 -15 -20 -26
-20 -12 0 -19 -7 -19 -20 0 -13 -7 -20 -20 -20 -13 0 -20 -7 -20 -20 0 -13 -7
-20 -20 -20 -13 0 -20 -7 -20 -19 0 -10 -9 -21 -20 -24 -15 -4 -20 -14 -20
-40 0 -27 -5 -36 -21 -40 -11 -3 -23 -15 -26 -26 -3 -12 -12 -21 -19 -21 -8 0
-16 -16 -20 -39 -4 -27 -12 -41 -25 -44 -15 -4 -19 -14 -19 -46 0 -28 -4 -41
-14 -41 -18 0 -26 -22 -26 -73 0 -31 -5 -45 -20 -55 -18 -11 -20 -23 -20 -126
0 -105 -1 -114 -20 -119 -19 -5 -20 -14 -20 -142 0 -128 1 -137 20 -142 19 -5
20 -14 20 -119 0 -103 2 -115 20 -126 15 -10 20 -24 20 -55 0 -30 6 -49 20
-63 11 -11 20 -33 20 -49 0 -18 8 -35 19 -43 10 -7 22 -28 25 -45 4 -18 13
-36 20 -40 7 -5 16 -16 19 -26 4 -11 16 -21 27 -24 14 -4 20 -14 20 -34 0 -18
7 -32 20 -39 11 -6 20 -20 20 -30 0 -13 7 -20 20 -20 13 0 20 -7 20 -20 0 -13
7 -20 20 -20 13 0 20 -7 20 -20 0 -14 7 -20 21 -20 12 0 23 -8 26 -19 3 -13
17 -22 44 -26 29 -5 39 -11 39 -26 0 -12 7 -19 19 -19 10 0 21 -9 24 -20 4
-15 14 -20 40 -20 26 0 36 -5 40 -20 4 -16 14 -20 45 -20 31 0 41 -4 45 -20 4
-17 14 -20 60 -20 46 0 57 -3 62 -19 8 -26 70 -31 342 -32 266 0 323 6 323 32
0 16 8 19 59 19 50 0 59 3 64 20 4 16 14 20 46 20 34 0 41 3 41 20 0 17 7 20
40 20 33 0 40 3 40 20 0 13 7 20 19 20 11 0 23 9 26 20 3 11 13 20 20 20 11 0
15 -19 17 -77 3 -71 5 -78 24 -81 12 -2 24 -12 27 -23 5 -18 16 -19 232 -19
l226 0 24 26 25 27 0 1732 c0 953 -3 1747 -6 1764 l-6 31 -268 0 c-146 0 -270
-3 -273 -7z m-414 -1763 c4 -15 14 -20 40 -20 26 0 36 -5 40 -20 3 -13 14 -20
29 -20 28 0 42 -9 51 -32 3 -10 13 -18 21 -18 8 0 18 -9 21 -20 3 -11 15 -20
26 -20 12 0 19 -7 19 -20 0 -13 7 -20 20 -20 16 0 20 -7 20 -30 0 -19 7 -34
20 -42 11 -7 20 -23 20 -35 0 -32 10 -53 26 -53 10 0 14 -16 14 -61 0 -52 3
-62 20 -66 19 -5 20 -14 20 -148 0 -134 -1 -143 -20 -148 -17 -4 -20 -14 -20
-66 0 -45 -4 -61 -14 -61 -16 0 -26 -21 -26 -53 0 -12 -9 -28 -20 -35 -13 -8
-20 -23 -20 -42 0 -23 -4 -30 -20 -30 -13 0 -20 -7 -20 -20 0 -13 -7 -20 -19
-20 -11 0 -23 -9 -26 -20 -3 -11 -13 -20 -21 -20 -8 0 -18 -8 -21 -17 -9 -24
-23 -33 -51 -33 -15 0 -26 -7 -29 -20 -4 -15 -14 -20 -40 -20 -26 0 -36 -5
-40 -20 -5 -19 -14 -20 -212 -20 -195 0 -207 1 -219 20 -9 16 -23 20 -62 20
-43 0 -50 3 -50 20 0 11 -5 20 -10 20 -6 0 -20 11 -32 25 -12 14 -28 25 -35
25 -7 0 -13 7 -13 16 0 9 -9 18 -20 21 -11 3 -20 12 -20 20 0 8 -9 17 -20 20
-11 3 -20 14 -20 24 0 12 -7 19 -20 19 -17 0 -20 7 -20 40 0 33 -3 40 -20 40
-17 0 -20 7 -20 50 0 37 -5 55 -20 70 -18 18 -20 33 -20 195 0 162 2 177 20
195 15 15 20 33 20 70 0 43 3 50 20 50 17 0 20 7 20 40 0 33 3 40 20 40 13 0
20 7 20 20 0 12 7 20 16 20 9 0 18 9 21 20 3 11 12 20 20 20 8 0 17 9 20 20 3
11 11 20 17 20 7 0 22 11 34 25 12 14 26 25 32 25 5 0 10 9 10 20 0 17 7 20
50 20 39 0 53 4 62 20 12 19 24 20 219 20 198 0 207 -1 212 -20z"/>
<path d="M2823 5620 c-3 -13 -17 -22 -40 -26 -23 -4 -37 -14 -40 -25 -3 -11
-14 -19 -24 -19 -12 0 -19 -7 -19 -20 0 -14 -7 -20 -21 -20 -12 0 -23 -8 -26
-20 -3 -11 -13 -20 -23 -20 -10 0 -20 -9 -23 -20 -3 -12 -14 -20 -25 -20 -30
0 -52 -10 -52 -25 0 -7 -9 -15 -20 -18 -11 -3 -20 -12 -20 -20 0 -8 -9 -17
-21 -20 -11 -3 -23 -14 -26 -25 -3 -11 -13 -22 -24 -25 -32 -9 -21 -117 12
-117 12 0 19 -7 19 -20 0 -11 7 -20 15 -20 9 0 20 -11 25 -25 5 -14 16 -25 25
-25 8 0 15 -7 15 -16 0 -9 9 -18 20 -21 11 -3 20 -12 20 -20 0 -8 9 -17 20
-20 11 -3 20 -12 20 -19 0 -8 11 -19 25 -24 14 -5 25 -16 25 -24 0 -7 9 -16
20 -19 11 -3 20 -12 20 -21 0 -9 8 -16 20 -16 13 0 20 -7 20 -19 0 -11 9 -22
19 -26 10 -3 21 -15 24 -25 3 -11 12 -20 20 -20 8 0 17 -9 20 -20 3 -11 12
-20 20 -20 9 0 18 -9 22 -19 3 -10 15 -21 25 -24 11 -3 20 -12 20 -21 0 -9 7
-16 16 -16 9 0 18 -9 21 -20 3 -11 14 -20 24 -20 12 0 19 -7 19 -19 0 -11 9
-23 20 -26 11 -3 20 -12 20 -20 0 -8 9 -17 20 -20 11 -3 20 -13 20 -22 0 -8 9
-17 20 -20 10 -3 22 -13 25 -23 3 -10 15 -20 25 -23 11 -3 20 -12 20 -20 0 -8
9 -17 20 -20 11 -3 20 -12 20 -21 0 -9 8 -16 20 -16 13 0 20 -7 20 -19 0 -11
9 -23 20 -26 11 -3 20 -12 20 -20 0 -8 9 -16 19 -20 10 -3 21 -15 24 -25 3
-11 12 -20 20 -20 9 0 19 -9 22 -20 3 -11 15 -20 26 -20 12 0 19 -7 19 -20 0
-13 7 -20 20 -20 13 0 20 -7 20 -20 0 -13 7 -20 20 -20 13 0 20 -7 20 -20 0
-11 5 -20 10 -20 13 0 106 -95 114 -115 3 -9 18 -15 35 -15 16 0 32 -4 35 -9
4 -5 17 -4 31 2 l25 12 0 452 c0 434 -1 452 -19 458 -10 3 -21 15 -24 25 -3
11 -12 20 -20 20 -9 0 -19 9 -22 20 -3 11 -15 20 -26 20 -12 0 -19 7 -19 20 0
13 -7 20 -20 20 -13 0 -20 7 -20 20 0 13 -7 20 -20 20 -13 0 -20 7 -20 20 0
13 -7 20 -20 20 -13 0 -20 7 -20 20 0 11 -4 20 -9 20 -5 0 -30 20 -54 45 -25
25 -50 45 -56 45 -6 0 -11 9 -11 20 0 13 -7 20 -20 20 -13 0 -20 7 -20 20 0
13 -7 20 -20 20 -12 0 -20 7 -20 16 0 9 -9 18 -20 21 -11 3 -20 12 -20 20 0 8
-9 17 -20 20 -10 3 -22 13 -25 24 -3 10 -15 21 -26 24 -10 4 -19 12 -19 20 0
8 -9 17 -20 20 -11 3 -20 13 -20 21 0 8 -7 17 -16 21 -21 8 -104 90 -104 103
0 17 -47 30 -107 30 -46 0 -56 -3 -60 -20z"/>
<path d="M4803 5630 c-13 -5 -23 -14 -23 -19 0 -12 -84 -97 -105 -104 -8 -4
-15 -13 -15 -21 0 -7 -9 -16 -20 -19 -11 -3 -20 -12 -20 -20 0 -8 -9 -17 -21
-20 -11 -3 -23 -14 -26 -25 -3 -11 -13 -22 -24 -25 -10 -3 -19 -12 -19 -21 0
-9 -7 -16 -16 -16 -9 0 -18 -9 -21 -20 -3 -11 -14 -20 -24 -20 -12 0 -19 -7
-19 -20 0 -13 -7 -20 -20 -20 -13 0 -20 -7 -20 -20 0 -13 -7 -20 -20 -20 -11
0 -20 -4 -20 -9 0 -12 -69 -81 -81 -81 -5 0 -9 -9 -9 -20 0 -13 -7 -20 -20
-20 -13 0 -20 -7 -20 -20 0 -13 -7 -20 -20 -20 -13 0 -20 -7 -20 -20 0 -13 -7
-20 -19 -20 -11 0 -22 -9 -26 -19 -3 -10 -15 -21 -25 -24 -11 -3 -20 -12 -20
-20 0 -8 -9 -17 -20 -20 -11 -3 -20 -12 -20 -20 0 -9 -9 -19 -20 -22 -20 -6
-20 -15 -20 -459 l0 -453 25 -11 c15 -7 27 -8 30 -2 4 6 19 10 36 10 16 0 29
4 29 9 0 5 29 38 65 74 36 36 65 70 65 76 0 6 9 11 20 11 13 0 20 7 20 20 0
13 7 20 20 20 13 0 20 7 20 20 0 13 7 20 20 20 13 0 20 7 20 20 0 13 7 20 20
20 11 0 20 4 20 8 0 13 67 82 79 82 6 0 11 9 11 20 0 13 7 20 20 20 13 0 20 7
20 20 0 13 7 20 20 20 13 0 20 7 20 20 0 13 7 20 20 20 12 0 20 7 20 16 0 9 9
18 20 21 11 3 20 9 20 13 0 11 70 80 81 80 5 0 9 9 9 20 0 13 7 20 20 20 13 0
20 7 20 20 0 13 7 20 20 20 13 0 20 7 20 20 0 13 7 20 19 20 11 0 23 9 26 20
3 11 12 20 20 20 8 0 17 9 20 20 3 11 13 20 22 20 8 0 17 9 20 20 3 10 14 22
24 25 10 4 19 15 19 26 0 12 7 19 20 19 13 0 20 7 20 20 0 13 7 20 20 20 13 0
20 7 20 20 0 13 7 20 19 20 11 0 23 9 26 20 3 11 12 20 20 20 8 0 16 9 20 19
3 10 15 21 25 24 11 3 20 12 20 20 0 8 9 17 20 20 12 3 20 14 20 26 0 14 6 21
20 21 13 0 20 7 20 19 0 10 8 21 19 24 34 9 39 117 5 117 -8 0 -19 11 -24 25
-5 14 -16 25 -25 25 -8 0 -15 7 -15 15 0 9 -8 19 -17 22 -10 4 -24 15 -31 25
-7 10 -25 18 -39 18 -16 0 -27 7 -30 20 -3 11 -13 20 -23 20 -10 0 -20 9 -23
20 -3 12 -14 20 -26 20 -14 0 -21 6 -21 20 0 13 -7 20 -19 20 -11 0 -22 9 -26
19 -3 12 -19 21 -39 25 -22 4 -36 13 -39 26 -4 17 -13 20 -64 19 -32 0 -68 -4
-80 -9z"/>
<path d="M8833 5553 c-7 -2 -13 -13 -13 -23 0 -10 -9 -20 -20 -23 -20 -5 -20
-14 -20 -1621 l0 -1616 43 -45 44 -45 1097 0 c1079 0 1098 0 1103 19 3 11 15
21 27 23 21 3 21 5 21 268 l0 265 -852 3 -853 2 0 415 0 415 703 0 c386 0 712
3 725 6 12 4 22 12 22 19 0 8 10 15 23 17 l22 3 3 273 2 272 -750 0 -750 0 0
395 0 395 786 0 c777 0 786 0 791 20 3 11 13 20 23 20 15 0 20 11 25 53 9 71
2 473 -8 484 -9 8 -2173 15 -2194 6z"/>
<path d="M18086 5545 c-9 -9 -16 -21 -16 -26 0 -5 -6 -9 -14 -9 -7 0 -16 -10
-20 -22 -11 -42 -7 -3185 4 -3214 6 -15 27 -42 46 -61 l35 -33 235 0 235 0 34
34 35 33 0 652 0 651 699 0 c665 0 701 1 713 18 7 10 21 21 31 25 16 6 17 26
15 274 l-3 268 -727 3 -728 2 0 415 0 415 754 0 c415 0 761 3 770 6 9 3 16 12
16 19 0 8 9 16 20 20 28 9 32 43 28 292 -2 165 -6 225 -16 235 -10 10 -220 14
-1072 16 -957 2 -1060 1 -1074 -13z"/>
<path d="M20653 5553 c-25 -3 -33 -9 -33 -24 0 -12 -7 -19 -20 -19 -13 0 -20
-7 -20 -20 0 -13 -7 -20 -19 -20 -11 0 -23 -9 -26 -20 -3 -11 -13 -20 -22 -20
-8 0 -17 -9 -20 -19 -3 -11 -13 -21 -24 -24 -15 -4 -19 -14 -19 -47 0 -29 -6
-47 -17 -55 -11 -8 -18 -32 -21 -74 -4 -53 -1 -67 17 -91 12 -17 21 -44 21
-66 0 -27 5 -37 20 -41 11 -3 20 -14 20 -24 0 -12 7 -19 19 -19 10 0 21 -9 24
-21 3 -11 14 -23 25 -26 11 -3 22 -13 25 -24 3 -10 12 -19 20 -19 8 0 17 -9
20 -19 4 -17 16 -19 103 -23 55 -1 137 -2 183 0 71 3 84 6 88 22 3 12 18 21
44 25 29 5 39 11 39 26 0 12 7 19 20 19 17 0 20 7 20 40 0 33 4 40 19 40 20 0
31 18 31 51 0 10 9 28 20 39 32 32 27 200 -6 200 -8 0 -14 10 -14 23 0 42 -12
67 -31 67 -15 0 -19 7 -19 40 0 33 -4 40 -19 40 -10 0 -21 9 -24 20 -4 15 -14
20 -40 20 -25 0 -36 5 -40 18 -2 12 -17 22 -37 25 -34 7 -251 7 -307 0z"/>
<path d="M2117 4883 c-4 -3 -7 -15 -7 -25 0 -11 -7 -18 -20 -18 -17 0 -20 -7
-20 -39 0 -30 -4 -40 -20 -44 -15 -4 -20 -14 -20 -40 0 -26 -5 -37 -19 -42
-14 -4 -20 -18 -23 -56 -4 -34 -12 -56 -27 -70 -11 -11 -21 -31 -21 -46 0 -14
-8 -32 -17 -39 -14 -10 -19 -31 -22 -104 -3 -85 -2 -92 17 -97 11 -2 22 -13
25 -24 3 -11 14 -19 26 -19 14 0 21 -6 21 -19 0 -11 9 -22 19 -26 10 -3 21
-15 24 -25 3 -11 12 -20 20 -20 8 0 17 -9 20 -20 3 -11 12 -20 20 -20 8 0 17
-9 20 -20 3 -11 12 -20 20 -20 8 0 17 -9 20 -20 3 -11 12 -20 20 -20 9 0 19
-9 22 -20 3 -11 15 -20 26 -20 12 0 19 -7 19 -19 0 -10 9 -21 20 -24 11 -3 20
-12 20 -20 0 -9 9 -19 20 -22 11 -3 20 -13 20 -22 0 -8 9 -17 20 -20 11 -3 20
-12 20 -20 0 -8 9 -17 20 -20 11 -3 20 -12 20 -20 0 -8 9 -17 20 -20 10 -3 22
-14 25 -24 4 -10 15 -19 26 -19 12 0 19 -7 19 -20 0 -13 7 -20 20 -20 13 0 20
-7 20 -19 0 -11 9 -23 20 -26 11 -3 20 -13 20 -22 0 -8 9 -17 19 -20 11 -3 21
-13 24 -24 3 -10 12 -19 20 -19 9 0 19 -9 22 -20 3 -11 15 -20 26 -20 12 0 19
-7 19 -20 0 -13 7 -20 20 -20 13 0 20 -7 20 -20 0 -13 7 -20 20 -20 13 0 20
-7 20 -20 0 -12 7 -20 16 -20 9 0 18 -9 21 -20 3 -11 9 -20 13 -20 5 0 29 -20
53 -45 25 -25 50 -45 55 -45 5 0 12 -9 15 -20 3 -11 12 -20 20 -20 8 0 17 -9
20 -20 3 -11 12 -20 20 -20 8 0 17 -9 20 -20 3 -11 12 -20 21 -20 9 0 16 -7
16 -15 0 -9 11 -20 25 -25 14 -5 25 -16 25 -24 0 -8 9 -18 20 -21 11 -3 20
-12 20 -20 0 -8 9 -17 20 -20 11 -3 20 -13 20 -21 0 -8 4 -14 9 -14 5 0 30
-20 54 -45 25 -25 47 -45 50 -45 3 0 32 -26 65 -57 76 -73 164 -152 178 -161
6 -4 13 -15 17 -24 3 -10 13 -18 21 -18 7 0 16 -9 19 -21 5 -17 12 -20 44 -17
l38 3 3 438 c2 432 2 437 -18 437 -13 0 -20 7 -20 20 0 13 -7 20 -20 20 -11 0
-20 7 -20 15 0 9 -11 20 -24 26 -13 6 -27 20 -29 30 -3 11 -12 19 -21 19 -9 0
-16 7 -16 16 0 9 -9 18 -20 21 -11 3 -20 12 -20 20 0 8 -9 17 -20 20 -11 3
-20 12 -20 20 0 8 -9 17 -19 20 -11 3 -21 13 -24 24 -3 10 -12 19 -20 19 -9 0
-18 9 -22 19 -3 10 -15 21 -25 24 -11 3 -20 12 -20 20 0 9 -9 18 -19 22 -10 3
-21 15 -24 25 -3 11 -12 20 -20 20 -8 0 -17 9 -20 20 -3 11 -12 20 -20 20 -8
0 -17 9 -20 20 -3 11 -12 20 -21 20 -9 0 -16 7 -16 15 0 9 -11 20 -25 25 -14
5 -25 16 -25 25 0 8 -9 15 -20 15 -13 0 -20 7 -20 19 0 11 -9 22 -19 26 -10 3
-21 15 -24 25 -3 11 -12 20 -20 20 -8 0 -17 9 -20 20 -3 11 -12 20 -21 20 -9
0 -16 7 -16 15 0 9 -11 20 -25 25 -14 5 -25 16 -25 25 0 8 -9 15 -20 15 -13 0
-20 7 -20 20 0 13 -7 20 -20 20 -13 0 -20 7 -20 20 0 13 -7 20 -20 20 -13 0
-20 7 -20 20 0 11 -5 20 -11 20 -6 0 -30 20 -53 45 -24 25 -48 45 -54 45 -7 0
-12 7 -12 16 0 9 -9 18 -19 21 -11 3 -21 13 -24 24 -3 10 -12 19 -20 19 -9 0
-19 9 -22 20 -3 11 -11 20 -17 20 -5 0 -40 29 -76 65 -36 36 -69 65 -74 65 -5
0 -30 20 -55 45 -24 25 -48 45 -53 45 -4 0 -10 9 -13 20 -3 11 -12 20 -20 20
-8 0 -17 9 -20 20 -4 17 -14 20 -59 20 -30 0 -58 -3 -61 -7z"/>
<path d="M5530 4870 c0 -12 -7 -20 -16 -20 -9 0 -18 -9 -21 -20 -3 -10 -14
-22 -24 -25 -11 -4 -24 -15 -29 -26 -6 -10 -17 -19 -25 -19 -8 0 -15 -7 -15
-15 0 -9 -11 -20 -25 -25 -13 -5 -42 -27 -63 -50 -22 -22 -44 -40 -50 -40 -6
0 -14 -9 -17 -20 -3 -11 -12 -20 -20 -20 -8 0 -16 -9 -20 -19 -3 -10 -15 -21
-25 -24 -11 -3 -20 -12 -20 -20 0 -8 -9 -17 -20 -20 -11 -3 -20 -12 -20 -21 0
-9 -6 -16 -13 -16 -8 0 -31 -20 -53 -45 -21 -24 -45 -45 -51 -45 -7 0 -13 -9
-13 -20 0 -13 -7 -20 -19 -20 -10 0 -21 -9 -24 -20 -3 -11 -12 -20 -20 -20 -8
0 -17 -9 -20 -20 -3 -11 -12 -20 -20 -20 -9 0 -18 -9 -22 -19 -3 -10 -15 -21
-25 -24 -11 -3 -20 -12 -20 -20 0 -8 -9 -17 -20 -20 -11 -3 -20 -12 -20 -20 0
-8 -9 -17 -20 -20 -11 -3 -20 -12 -20 -20 0 -9 -9 -18 -19 -22 -10 -3 -21 -15
-24 -25 -3 -11 -12 -20 -20 -20 -9 0 -18 -9 -22 -19 -3 -10 -15 -21 -25 -24
-11 -3 -20 -12 -20 -20 0 -8 -9 -17 -20 -20 -11 -3 -20 -12 -20 -20 0 -8 -9
-17 -20 -20 -11 -3 -20 -12 -20 -20 0 -8 -9 -17 -20 -20 -11 -3 -20 -12 -20
-21 0 -9 -7 -16 -15 -16 -9 0 -20 -11 -26 -24 -6 -13 -20 -27 -30 -29 -11 -3
-19 -12 -19 -21 0 -9 -8 -16 -20 -16 -13 0 -20 -7 -20 -20 0 -13 -7 -20 -20
-20 -13 0 -20 -7 -20 -20 0 -13 -7 -20 -20 -20 -13 0 -20 -7 -20 -20 0 -13 -7
-20 -20 -20 -13 0 -20 -7 -20 -20 0 -11 -7 -20 -15 -20 -8 0 -22 -11 -31 -25
-9 -14 -23 -25 -30 -25 -8 0 -14 -9 -14 -20 0 -13 -7 -20 -20 -20 -13 0 -20
-7 -20 -20 0 -13 -7 -20 -20 -20 -20 0 -20 -5 -18 -437 l3 -438 38 -3 c31 -3
39 0 44 16 3 11 13 22 24 25 10 3 19 12 19 21 0 9 4 16 9 16 12 0 81 69 81 81
0 5 6 9 13 9 7 0 43 29 81 64 37 36 74 67 82 70 8 3 14 12 14 21 0 8 5 15 11
15 6 0 31 20 56 45 24 25 49 45 54 45 5 0 9 6 9 14 0 8 9 17 19 21 10 3 21 15
24 25 3 11 12 20 20 20 9 0 19 9 22 20 3 11 13 20 22 20 8 0 17 9 20 20 3 11
12 20 20 20 8 0 17 9 20 20 3 11 12 20 20 20 8 0 17 9 20 20 3 11 12 20 20 20
8 0 17 9 20 20 3 11 10 20 15 20 13 0 78 65 78 79 0 6 9 11 20 11 13 0 20 7
20 20 0 13 7 20 20 20 13 0 20 7 20 20 0 13 7 20 20 20 13 0 20 7 20 20 0 13
7 20 19 20 10 0 21 9 24 20 3 11 12 20 20 20 9 0 18 9 22 19 3 10 15 21 25 24
11 3 20 12 20 20 0 9 9 19 20 22 11 3 20 15 20 26 0 12 7 19 20 19 13 0 20 7
20 20 0 13 7 20 20 20 13 0 20 7 20 20 0 13 7 20 19 20 11 0 22 9 26 19 3 10
15 21 25 24 11 3 20 12 20 20 0 8 9 17 20 20 11 3 20 12 20 20 0 9 9 19 20 22
11 3 20 13 20 22 0 8 9 17 20 20 11 3 20 14 20 24 0 12 7 19 20 19 13 0 20 7
20 20 0 13 7 20 19 20 11 0 23 9 26 20 3 11 13 20 22 20 8 0 17 9 20 20 3 11
12 20 20 20 8 0 17 9 20 20 3 11 12 20 20 20 8 0 17 9 20 20 3 10 14 22 24 25
10 4 19 15 19 26 0 12 7 19 20 19 11 0 20 7 20 15 0 9 12 20 26 25 26 10 26
11 22 101 -3 71 -8 94 -21 104 -9 7 -20 27 -24 46 -3 19 -15 40 -25 47 -13 9
-18 26 -18 57 0 34 -5 48 -20 57 -14 9 -20 24 -20 46 0 25 -5 35 -20 39 -15 4
-20 14 -20 40 0 26 -5 36 -19 40 -11 3 -21 15 -23 27 -3 18 -10 21 -65 24 -58
3 -63 1 -63 -18z"/>
<path d="M12076 4553 c-27 -3 -40 -10 -43 -24 -5 -16 -14 -19 -64 -19 -52 0
-59 -2 -59 -20 0 -18 -7 -20 -55 -20 -43 0 -56 -4 -64 -19 -6 -10 -26 -22 -45
-25 -19 -4 -37 -13 -40 -21 -3 -8 -14 -15 -25 -15 -11 0 -22 -9 -26 -20 -4
-13 -15 -20 -31 -20 -14 0 -35 -11 -48 -25 -13 -14 -28 -25 -35 -25 -6 0 -11
-9 -11 -20 0 -13 -7 -20 -20 -20 -13 0 -20 -7 -20 -20 0 -13 -7 -20 -20 -20
-17 0 -20 -7 -20 -44 0 -54 8 -76 26 -76 8 0 14 -10 14 -25 0 -18 5 -25 20
-25 13 0 20 -7 20 -20 0 -13 7 -20 20 -20 13 0 20 -7 20 -20 0 -13 7 -20 20
-20 11 0 20 -5 20 -10 0 -14 66 -80 80 -80 5 0 10 -8 10 -19 0 -35 141 -35
179 0 11 10 30 19 42 19 12 0 23 8 26 20 4 14 17 22 44 26 29 5 39 11 39 25 0
16 8 19 45 19 32 0 51 6 65 20 19 19 33 20 244 20 215 0 224 -1 229 -20 4 -14
14 -20 34 -20 19 0 37 -9 51 -25 12 -14 26 -25 31 -25 5 0 11 -9 14 -20 3 -11
12 -20 21 -20 12 0 16 -10 16 -35 0 -24 6 -37 20 -45 16 -9 20 -21 20 -65 l0
-55 -349 0 c-325 0 -350 -1 -372 -19 -16 -12 -46 -20 -93 -23 -49 -3 -72 -9
-81 -21 -7 -10 -26 -17 -44 -17 -17 0 -39 -8 -50 -19 -10 -10 -35 -21 -55 -25
-27 -5 -36 -12 -36 -26 0 -17 -7 -20 -40 -20 -29 0 -40 -4 -40 -15 0 -9 -11
-20 -25 -25 -14 -5 -25 -15 -25 -23 0 -7 -15 -17 -32 -22 -25 -8 -35 -18 -42
-42 -6 -17 -18 -34 -28 -36 -10 -3 -18 -12 -18 -20 0 -9 -9 -19 -20 -22 -11
-3 -20 -15 -20 -26 0 -12 -7 -19 -19 -19 -14 0 -20 -10 -25 -40 -3 -21 -14
-43 -23 -48 -12 -7 -17 -29 -21 -91 -2 -44 -8 -81 -13 -81 -32 0 -39 -211 -8
-234 12 -8 18 -33 21 -85 3 -54 8 -75 20 -82 9 -5 19 -27 23 -49 5 -30 11 -40
26 -40 12 0 19 -7 19 -20 0 -13 7 -20 20 -20 17 0 20 -7 20 -40 0 -29 4 -40
15 -40 9 0 20 -11 25 -25 8 -20 16 -25 45 -25 25 0 35 -4 35 -15 0 -9 11 -20
25 -25 14 -5 25 -16 25 -25 0 -11 11 -15 40 -15 33 0 40 -3 40 -20 0 -17 7
-20 43 -20 30 0 45 -5 54 -19 17 -26 78 -32 351 -31 250 1 319 8 334 34 6 10
23 16 48 16 29 0 42 5 50 20 8 14 21 20 45 20 28 0 35 4 35 20 0 17 7 20 40
20 29 0 40 4 40 15 0 9 11 20 25 25 14 5 25 16 25 25 0 8 7 15 15 15 12 0 15
-14 15 -64 0 -76 6 -96 30 -96 10 0 20 -9 23 -20 5 -19 14 -20 210 -20 l205 0
41 40 c37 36 41 45 41 90 0 49 -16 100 -32 100 -4 0 -8 353 -8 784 0 431 -3
791 -6 800 -3 9 -12 16 -19 16 -8 0 -14 19 -17 52 -3 29 -12 56 -20 62 -8 6
-18 21 -22 34 -4 13 -15 22 -27 22 -16 0 -19 7 -19 40 0 33 -3 40 -20 40 -13
0 -20 7 -20 19 0 11 -9 22 -19 26 -10 3 -21 15 -24 25 -3 11 -12 20 -20 20 -8
0 -17 9 -20 20 -4 15 -14 20 -36 20 -20 0 -34 7 -41 20 -6 11 -19 20 -29 20
-10 0 -21 9 -24 20 -4 15 -14 20 -40 20 -27 0 -37 5 -42 20 -5 17 -15 20 -65
20 -48 0 -58 3 -62 18 -4 14 -18 21 -53 25 -50 7 -581 7 -649 0z m744 -1417
c0 -75 -2 -84 -20 -89 -15 -4 -20 -14 -20 -41 0 -23 -7 -43 -20 -56 -11 -11
-20 -29 -20 -40 0 -13 -7 -20 -20 -20 -13 0 -20 -7 -20 -20 0 -12 -7 -20 -16
-20 -9 0 -18 -9 -21 -19 -3 -11 -14 -21 -25 -24 -11 -3 -22 -15 -25 -26 -4
-17 -13 -21 -43 -21 -29 0 -39 -4 -43 -20 -5 -19 -14 -20 -230 -20 -216 0
-225 1 -230 20 -4 15 -14 20 -41 20 -29 0 -36 4 -36 19 0 11 -9 23 -20 26 -14
4 -20 15 -20 35 0 19 -7 33 -20 40 -25 13 -29 87 -5 96 8 3 17 21 21 40 4 24
12 34 25 34 12 0 19 7 19 20 0 13 7 20 19 20 10 0 21 9 24 20 3 13 14 20 30
20 35 0 57 10 57 25 0 8 22 15 61 19 39 5 66 14 77 26 16 17 37 18 290 19
l272 1 0 -84z"/>
<path d="M14293 4553 c-19 -3 -37 -12 -43 -24 -8 -14 -21 -19 -50 -19 -27 0
-47 -7 -60 -20 -11 -11 -31 -20 -45 -20 -14 0 -34 -9 -45 -20 -11 -11 -29 -20
-40 -20 -13 0 -20 -7 -20 -19 0 -13 -10 -20 -32 -25 -17 -3 -37 -15 -45 -26
-8 -11 -21 -20 -29 -20 -8 0 -14 -9 -14 -20 0 -13 -7 -20 -19 -20 -15 0 -21
-10 -26 -40 -5 -30 -11 -40 -26 -40 -14 0 -19 -7 -19 -25 0 -15 -6 -25 -14
-25 -18 0 -26 -22 -26 -76 0 -37 -3 -44 -20 -44 -19 0 -20 -7 -20 -226 0 -217
1 -226 20 -231 16 -4 20 -14 20 -44 0 -32 3 -39 20 -39 17 0 20 -7 20 -40 0
-33 3 -40 20 -40 14 0 20 -7 20 -21 0 -12 8 -23 20 -26 10 -3 22 -14 25 -24 4
-10 15 -19 26 -19 12 0 19 -7 19 -20 0 -17 7 -20 40 -20 33 0 40 -3 40 -20 0
-15 7 -20 25 -20 15 0 25 -6 25 -14 0 -18 22 -26 76 -26 37 0 44 -3 44 -19 0
-16 10 -20 60 -26 38 -4 63 -13 69 -22 6 -11 30 -17 82 -21 51 -3 78 -10 86
-21 8 -11 33 -17 87 -19 53 -3 76 -8 76 -17 0 -17 23 -25 76 -25 37 0 44 -3
44 -20 0 -13 7 -20 19 -20 10 0 21 -9 24 -20 3 -11 12 -20 20 -20 9 0 19 -9
22 -20 3 -11 13 -20 21 -20 20 0 20 -79 -1 -86 -8 -3 -17 -14 -20 -25 -4 -10
-13 -19 -22 -19 -8 0 -17 -9 -20 -20 -3 -11 -13 -20 -23 -20 -9 0 -25 -9 -35
-20 -17 -19 -31 -20 -206 -20 -179 0 -188 1 -194 20 -5 16 -15 20 -46 20 -32
0 -39 3 -39 20 0 11 -6 20 -14 20 -8 0 -21 8 -28 19 -7 10 -27 21 -44 25 -20
4 -34 15 -37 27 -3 10 -12 19 -20 19 -8 0 -17 9 -20 20 -5 18 -14 20 -86 20
-74 0 -81 -2 -81 -20 0 -14 -7 -20 -24 -20 -34 0 -56 -10 -56 -25 0 -7 -11
-16 -25 -19 -14 -4 -25 -13 -25 -21 0 -7 -9 -17 -20 -20 -11 -3 -20 -15 -20
-26 0 -12 -7 -19 -20 -19 -13 0 -20 -7 -20 -20 0 -15 -7 -20 -29 -20 -38 0
-51 -18 -58 -83 -8 -78 3 -127 27 -127 13 0 20 -7 20 -20 0 -13 7 -20 20 -20
13 0 20 -7 20 -20 0 -11 7 -20 15 -20 9 0 20 -11 25 -25 5 -14 16 -25 24 -25
7 0 16 -9 19 -20 3 -13 14 -20 30 -20 13 0 32 -9 42 -20 10 -11 26 -20 37 -20
11 0 18 -7 18 -20 0 -17 7 -20 39 -20 31 0 41 -4 46 -20 5 -17 15 -20 65 -20
48 0 58 -3 63 -18 6 -26 83 -33 394 -33 298 1 349 5 356 32 4 16 15 19 61 19
43 0 61 5 76 20 11 11 31 20 45 20 14 0 34 9 45 20 11 11 29 20 40 20 13 0 20
7 20 19 0 15 10 21 40 26 23 4 40 12 40 20 0 8 9 16 19 20 11 3 23 15 26 26 4
10 12 19 20 19 15 0 25 22 25 56 0 17 6 24 20 24 13 0 20 7 20 19 0 10 9 21
20 24 16 4 20 14 20 46 0 28 4 41 14 41 8 0 17 7 20 16 3 9 6 128 6 266 0 241
-1 250 -20 255 -16 4 -20 14 -20 44 0 32 -3 39 -20 39 -13 0 -20 7 -20 19 0
11 -9 22 -19 26 -13 4 -21 17 -23 38 -2 21 -10 35 -25 42 -12 5 -24 17 -26 27
-4 13 -15 18 -41 18 -29 0 -36 4 -36 20 0 12 -7 20 -18 20 -9 0 -23 9 -30 20
-8 14 -23 20 -47 20 -24 0 -35 5 -35 15 0 14 -56 35 -94 35 -10 0 -24 7 -31
16 -8 12 -33 18 -88 22 -63 4 -76 8 -80 23 -5 17 -16 19 -96 19 -80 0 -92 2
-101 20 -9 17 -21 20 -70 20 -53 0 -60 2 -60 20 0 17 -7 20 -40 20 -33 0 -40
3 -40 20 0 13 -7 20 -19 20 -14 0 -21 10 -25 36 -4 19 -14 38 -22 41 -21 8
-17 57 6 78 11 10 20 26 20 37 0 13 8 18 30 18 19 0 34 7 42 20 12 19 24 20
175 20 153 0 162 -1 168 -20 5 -15 15 -20 41 -20 24 0 34 -5 34 -15 0 -9 11
-21 25 -27 14 -6 25 -17 25 -24 0 -7 9 -15 19 -19 10 -3 21 -14 24 -24 5 -22
50 -29 139 -23 47 4 62 8 65 22 3 10 13 20 24 23 10 3 19 12 19 20 0 9 9 19
20 22 11 3 20 15 20 26 0 15 7 19 39 19 31 0 41 4 46 20 3 11 13 20 22 20 8 0
17 9 20 20 3 11 14 20 24 20 12 0 19 7 19 19 0 10 9 21 20 24 17 4 20 14 20
62 0 48 -3 58 -20 62 -11 3 -20 14 -20 24 0 12 -7 19 -20 19 -13 0 -20 7 -20
19 0 11 -9 23 -20 26 -11 3 -20 13 -20 22 0 8 -9 17 -20 20 -10 3 -22 14 -25
24 -4 10 -15 19 -26 19 -12 0 -19 7 -19 20 0 16 -7 20 -36 20 -27 0 -37 5 -41
20 -4 15 -14 20 -39 20 -23 0 -37 6 -44 20 -8 15 -21 20 -55 20 -30 0 -47 5
-53 16 -5 8 -26 19 -48 24 -37 9 -524 11 -591 3z"/>
<path d="M22291 4553 c-22 -3 -35 -11 -38 -24 -5 -16 -14 -19 -63 -19 -50 0
-60 -3 -65 -20 -5 -16 -15 -20 -46 -20 -32 0 -39 -3 -39 -20 0 -17 -7 -20 -39
-20 -30 0 -41 -5 -46 -19 -3 -10 -15 -21 -25 -24 -11 -3 -20 -12 -20 -20 0 -9
-14 -17 -39 -21 -27 -4 -40 -12 -44 -26 -3 -11 -12 -20 -21 -20 -9 0 -16 -8
-16 -20 0 -14 -7 -20 -21 -20 -12 0 -23 -8 -26 -20 -3 -11 -12 -20 -20 -20 -8
0 -17 -9 -20 -19 -3 -11 -13 -21 -24 -24 -10 -3 -19 -12 -19 -21 0 -9 -9 -25
-20 -36 -11 -11 -20 -29 -20 -41 0 -12 -8 -23 -20 -26 -13 -3 -20 -14 -20 -28
0 -33 -10 -55 -25 -55 -7 0 -16 -12 -20 -27 -3 -14 -15 -38 -26 -51 -10 -14
-19 -40 -19 -58 0 -22 -5 -34 -14 -34 -19 0 -26 -22 -26 -77 0 -32 -5 -50 -17
-59 -16 -11 -18 -40 -21 -298 -3 -277 -2 -286 18 -303 15 -13 20 -29 20 -66 0
-32 7 -58 19 -75 10 -15 22 -46 26 -70 4 -24 13 -46 21 -49 8 -3 17 -23 20
-44 5 -29 11 -39 25 -39 15 0 19 -7 19 -36 0 -27 5 -37 20 -41 11 -3 20 -14
20 -25 0 -11 9 -22 20 -25 11 -3 20 -14 20 -24 0 -12 7 -19 20 -19 13 0 20 -7
20 -20 0 -13 7 -20 20 -20 12 0 20 -7 20 -16 0 -9 9 -18 20 -21 10 -3 22 -13
25 -24 3 -10 15 -21 26 -24 10 -4 19 -13 19 -22 0 -8 9 -17 19 -20 11 -3 21
-13 24 -24 4 -14 14 -19 40 -19 26 0 36 -5 40 -20 3 -13 14 -20 30 -20 13 0
32 -9 42 -20 12 -13 31 -20 57 -20 31 0 38 -3 38 -20 0 -18 7 -20 65 -20 57 0
65 -2 65 -19 0 -27 56 -32 356 -32 312 1 380 6 387 32 4 16 15 19 66 19 54 0
61 2 61 20 0 17 7 20 41 20 32 0 42 4 46 20 4 16 14 20 44 20 32 0 39 3 39 20
0 16 7 20 36 20 27 0 37 5 41 19 3 11 16 22 29 25 13 4 24 13 24 22 0 9 9 18
20 21 11 3 20 14 20 24 0 12 7 19 20 19 13 0 20 7 20 20 0 13 7 20 20 20 13 0
20 7 20 20 0 13 7 20 20 20 13 0 20 7 20 20 0 11 7 20 15 20 21 0 35 33 35 82
0 62 -9 88 -31 88 -12 0 -19 7 -19 19 0 14 -10 20 -39 25 -27 4 -40 12 -44 26
-3 11 -12 20 -20 20 -8 0 -17 9 -20 20 -3 11 -14 20 -25 20 -11 0 -22 9 -25
20 -4 15 -14 20 -41 20 -29 0 -36 4 -36 20 0 18 -7 20 -81 20 -72 0 -81 -2
-86 -20 -3 -11 -14 -20 -24 -20 -12 0 -19 -7 -19 -20 0 -13 -7 -20 -20 -20
-13 0 -20 -7 -20 -19 0 -15 -10 -21 -40 -26 -22 -4 -40 -12 -40 -19 0 -7 -11
-18 -25 -24 -14 -6 -25 -18 -25 -27 0 -11 -10 -15 -36 -15 -27 0 -37 -5 -41
-20 -5 -19 -14 -20 -230 -20 -216 0 -225 1 -230 20 -4 16 -14 20 -43 20 -30 0
-40 5 -45 20 -3 11 -15 20 -25 20 -29 0 -50 11 -50 26 0 7 -11 16 -25 20 -14
3 -25 12 -25 20 0 8 -4 14 -8 14 -16 0 -72 57 -72 73 0 10 -8 17 -20 17 -13 0
-20 7 -20 20 0 13 -7 20 -20 20 -17 0 -20 7 -20 40 l0 40 788 0 c433 0 804 3
826 7 25 4 40 12 43 24 3 10 13 21 23 24 26 8 30 33 30 213 0 149 -2 164 -20
182 -17 17 -20 33 -20 116 0 87 -2 96 -20 101 -17 5 -20 14 -20 59 0 39 -5 58
-19 71 -11 10 -22 39 -26 65 -5 34 -13 49 -26 53 -10 4 -19 14 -19 23 0 10 -9
23 -20 30 -13 8 -20 23 -20 43 0 22 -5 32 -20 36 -11 3 -20 14 -20 24 0 12 -7
19 -20 19 -13 0 -20 7 -20 20 0 13 -7 20 -18 20 -13 0 -21 11 -28 37 -8 32
-14 39 -46 46 -23 5 -38 16 -41 28 -3 10 -12 19 -20 19 -8 0 -17 9 -20 20 -3
11 -12 20 -20 20 -8 0 -17 9 -20 20 -4 15 -14 20 -40 20 -27 0 -37 5 -42 20
-5 16 -15 20 -46 20 -32 0 -39 3 -39 20 0 18 -7 20 -59 20 -49 0 -59 3 -63 18
-4 13 -18 21 -44 25 -42 7 -566 7 -623 0z m539 -563 c0 -17 7 -20 40 -20 33 0
40 -3 40 -20 0 -11 6 -20 14 -20 7 0 21 -11 30 -25 9 -14 23 -25 31 -25 8 0
15 -9 15 -20 0 -13 7 -20 20 -20 13 0 20 -7 20 -20 0 -13 7 -20 20 -20 17 0
20 -7 20 -50 0 -39 4 -53 20 -62 14 -9 20 -24 20 -50 l0 -38 -540 0 -540 0 0
54 c0 46 3 56 20 61 11 3 20 15 20 26 0 12 7 19 20 19 17 0 20 7 20 40 0 34 3
40 21 40 12 0 23 8 26 20 3 13 17 22 39 26 19 3 39 15 45 25 5 11 16 19 24 19
8 0 15 9 15 20 0 17 7 20 40 20 33 0 40 3 40 20 0 19 7 20 230 20 223 0 230
-1 230 -20z"/>
<path d="M15497 4503 c-4 -3 -7 -40 -7 -81 0 -64 3 -75 19 -79 14 -4 20 -17
24 -56 2 -30 11 -55 21 -62 9 -7 16 -24 16 -39 0 -14 9 -34 20 -43 12 -11 22
-36 26 -66 5 -32 13 -51 25 -58 14 -7 19 -21 19 -49 0 -33 3 -40 20 -40 17 0
20 -7 20 -38 0 -24 7 -46 20 -60 13 -14 20 -35 20 -63 0 -32 4 -42 20 -46 15
-4 20 -14 20 -39 0 -20 7 -38 18 -46 12 -8 21 -32 25 -62 4 -30 15 -57 27 -68
11 -11 20 -32 20 -48 0 -23 5 -30 20 -30 18 0 20 -7 20 -55 0 -44 4 -56 20
-65 14 -8 20 -21 20 -46 0 -27 5 -37 20 -41 16 -4 20 -14 20 -43 0 -22 8 -48
20 -63 11 -14 20 -33 20 -44 0 -34 12 -63 26 -63 9 0 14 -11 14 -30 0 -17 9
-37 21 -49 15 -14 23 -36 27 -70 3 -38 9 -52 23 -56 14 -5 19 -16 19 -46 0
-32 3 -39 20 -39 17 0 20 -7 20 -44 0 -54 8 -76 26 -76 10 0 14 -13 14 -41 0
-32 4 -42 19 -46 14 -4 20 -17 24 -56 2 -28 11 -55 19 -61 9 -6 19 -27 23 -46
4 -19 16 -43 27 -53 22 -21 17 -51 -13 -80 -11 -10 -19 -31 -19 -47 0 -17 -7
-33 -17 -38 -11 -7 -18 -27 -21 -65 -3 -43 -8 -56 -23 -60 -14 -4 -19 -14 -19
-39 0 -22 -6 -37 -20 -46 -13 -8 -20 -23 -20 -43 0 -17 -9 -42 -20 -56 -11
-14 -20 -34 -20 -44 0 -12 -7 -19 -20 -19 -13 0 -20 -7 -20 -20 0 -14 -7 -20
-21 -20 -12 0 -23 -8 -26 -20 -5 -19 -14 -20 -169 -20 -151 0 -166 2 -184 20
-13 13 -33 20 -56 20 -27 0 -37 -5 -41 -20 -3 -11 -12 -20 -19 -20 -22 0 -34
-44 -34 -127 0 -61 -3 -78 -17 -89 -15 -10 -19 -32 -21 -121 -4 -126 6 -163
42 -163 14 0 35 -10 46 -22 21 -23 26 -23 298 -26 296 -4 362 1 362 23 0 9 17
16 45 21 35 5 45 10 45 25 0 15 7 19 40 19 33 0 40 3 40 20 0 13 7 20 19 20
11 0 22 9 26 19 3 10 15 21 25 24 11 3 20 12 20 21 0 9 7 16 16 16 9 0 18 9
21 20 3 10 14 22 24 25 14 5 19 16 19 46 0 32 3 39 20 39 14 0 20 7 20 23 0
13 8 32 19 41 10 9 21 32 24 51 3 18 15 43 26 54 12 12 21 34 21 51 0 19 5 30
14 30 17 0 26 22 26 61 0 18 5 29 14 29 14 0 26 41 26 90 0 19 6 29 20 33 15
4 20 14 20 41 0 23 7 43 20 56 14 14 20 33 20 65 0 37 3 45 19 45 15 0 19 10
24 51 4 33 14 59 27 71 11 11 20 32 20 48 0 17 7 33 17 38 11 7 18 27 21 65 3
43 8 56 23 60 14 4 19 14 19 41 0 25 6 38 20 46 16 9 20 21 20 65 0 48 2 55
20 55 17 0 20 7 20 40 0 28 5 42 19 49 13 7 21 27 26 66 4 36 11 55 20 55 8 0
16 17 20 43 4 23 16 54 26 69 11 14 19 40 19 57 0 20 7 34 20 41 16 9 20 21
20 61 0 42 3 52 20 56 16 4 20 14 20 43 0 30 5 40 20 45 17 5 20 15 20 66 0
51 3 59 19 59 14 0 20 10 25 40 3 21 13 43 21 48 9 5 18 29 22 60 4 37 12 56
24 63 13 6 19 21 19 44 0 21 6 37 16 43 11 6 18 27 22 60 3 39 9 53 23 57 14
5 19 16 19 46 0 26 7 47 20 61 13 14 20 36 20 59 0 28 5 38 19 42 15 3 20 18
26 66 4 40 11 61 20 61 15 0 25 22 25 52 0 12 7 26 16 33 10 7 19 32 22 65 4
40 9 54 23 57 28 8 27 73 -1 80 -11 3 -20 14 -20 24 0 18 -13 19 -289 19 -323
0 -301 5 -301 -75 0 -34 -4 -44 -20 -48 -16 -4 -20 -14 -20 -46 0 -28 -7 -48
-20 -61 -13 -13 -20 -33 -20 -59 0 -31 -5 -41 -20 -46 -15 -5 -21 -19 -26 -66
-4 -37 -11 -59 -19 -59 -15 0 -25 -31 -25 -81 0 -28 -5 -38 -20 -42 -16 -4
-20 -14 -20 -50 0 -31 -6 -49 -20 -62 -13 -12 -20 -31 -20 -54 0 -25 -6 -40
-20 -49 -16 -10 -20 -23 -20 -67 0 -48 -2 -55 -20 -55 -18 0 -20 -7 -20 -60 0
-52 -2 -60 -19 -60 -19 0 -31 -34 -31 -89 0 -15 -8 -31 -20 -39 -14 -8 -20
-23 -20 -47 0 -21 -6 -37 -16 -43 -11 -6 -18 -27 -22 -61 -3 -37 -10 -55 -23
-62 -15 -8 -19 -21 -19 -64 0 -48 -2 -55 -20 -55 -17 0 -20 7 -20 45 0 32 -6
51 -20 65 -13 13 -20 33 -20 56 0 27 -5 37 -20 41 -16 4 -20 14 -20 48 0 53
-8 75 -26 75 -10 0 -14 12 -14 38 0 23 -7 46 -19 58 -10 11 -21 41 -25 66 -5
34 -12 47 -26 51 -17 4 -20 14 -20 60 0 47 -3 57 -20 62 -15 5 -20 15 -20 45
0 30 -5 40 -20 45 -17 5 -20 15 -20 60 0 44 -3 55 -19 60 -14 4 -20 18 -23 57
-4 33 -11 54 -22 60 -10 6 -16 22 -16 43 0 24 -6 38 -20 45 -11 6 -20 21 -20
34 0 49 -13 89 -32 93 -14 4 -18 15 -18 49 0 31 -6 50 -20 64 -13 13 -20 33
-20 56 0 27 -5 37 -20 41 -16 4 -20 14 -20 44 l0 39 -308 0 c-170 0 -312 -3
-315 -7z"/>
<path d="M20536 4494 c-8 -20 -8 -2238 0 -2258 3 -9 14 -16 24 -16 10 0 20 -9
23 -20 5 -19 14 -20 225 -20 212 0 221 1 227 20 3 11 15 20 26 20 19 0 19 20
19 1145 l0 1145 -269 0 c-236 0 -270 -2 -275 -16z"/>
</g>
</svg>
